HIERARCHY
ROOT root
{
	OFFSET 0.000000 0.000000 0.000000
	CHANNELS 6 Xposition Yposition Zposition Zrotation Yrotation Xrotation
	JOINT lhip
	{
		OFFSET 0.058581 -0.082280 -0.017664
		CHANNELS 3 Zrotation Yrotation Xrotation
		JOINT lknee
		{
			OFFSET 0.043451 -0.386469 0.008037
			CHANNELS 3 Zrotation Yrotation Xrotation
			JOINT lankle
			{
				OFFSET -0.014790 -0.426874 -0.037428
				CHANNELS 3 Zrotation Yrotation Xrotation
				JOINT ltoe
				{
					OFFSET 0.041054 -0.060286 0.122042
					CHANNELS 3 Zrotation Yrotation Xrotation
					End Site
					{
						OFFSET 0.000000 0.000000 0.000000
					}
				}
			}
		}
	}
	JOINT rhip
	{
		OFFSET -0.060310 -0.090513 -0.013543
		CHANNELS 3 Zrotation Yrotation Xrotation
		JOINT rknee
		{
			OFFSET -0.043257 -0.383688 -0.004843
			CHANNELS 3 Zrotation Yrotation Xrotation
			JOINT rankle
			{
				OFFSET 0.019056 -0.420046 -0.034562
				CHANNELS 3 Zrotation Yrotation Xrotation
				JOINT rtoe
				{
					OFFSET -0.034840 -0.062106 0.130323
					CHANNELS 3 Zrotation Yrotation Xrotation
					End Site
					{
						OFFSET 0.000000 0.000000 0.000000
					}
				}
			}
		}
	}
	JOINT lowerback
	{
		OFFSET 0.004439 0.124404 -0.038385
		CHANNELS 3 Zrotation Yrotation Xrotation
		JOINT upperback
		{
			OFFSET 0.004488 0.137956 0.026820
			CHANNELS 3 Zrotation Yrotation Xrotation
			JOINT chest
			{
				OFFSET -0.002265 0.056032 0.002855
				CHANNELS 3 Zrotation Yrotation Xrotation
				JOINT lowerneck
				{
					OFFSET -0.013390 0.211636 -0.033468
					CHANNELS 3 Zrotation Yrotation Xrotation
					JOINT upperneck
					{
						OFFSET 0.010113 0.088937 0.050410
						CHANNELS 3 Zrotation Yrotation Xrotation
						End Site
						{
							OFFSET 0.000000 0.000000 0.000000
						}
					}
				}
				JOINT lclavicle
				{
					OFFSET 0.071702 0.114000 -0.018898
					CHANNELS 3 Zrotation Yrotation Xrotation
					JOINT lshoulder
					{
						OFFSET 0.122921 0.045205 -0.019046
						CHANNELS 3 Zrotation Yrotation Xrotation
						JOINT lelbow
						{
							OFFSET 0.255332 -0.015649 -0.022946
							CHANNELS 3 Zrotation Yrotation Xrotation
							JOINT lwrist
							{
								OFFSET 0.265709 0.012698 -0.007375
								CHANNELS 3 Zrotation Yrotation Xrotation
								End Site
								{
									OFFSET 0.000000 0.000000 0.000000
								}
							}
						}
					}
				}
				JOINT rclavicle
				{
					OFFSET -0.082954 0.112472 -0.023707
					CHANNELS 3 Zrotation Yrotation Xrotation
					JOINT rshoulder
					{
						OFFSET -0.113228 0.046853 -0.008472
						CHANNELS 3 Zrotation Yrotation Xrotation
						JOINT relbow
						{
							OFFSET -0.260127 -0.014369 -0.031269
							CHANNELS 3 Zrotation Yrotation Xrotation
							JOINT rwrist
							{
								OFFSET -0.269108 0.006794 -0.006027
								CHANNELS 3 Zrotation Yrotation Xrotation
								End Site
								{
									OFFSET 0.000000 0.000000 0.000000
								}
							}
						}
					}
				}
			}
		}
	}
}
MOTION
Frames: 10
Frame Time: 0.033333
0.002719 0.314968 1.008015 61.284152 0.718820 84.901117 0.094750 8.325460 7.990328 -3.842241 9.554144 0.127021 1.385315 15.377264 -5.518079 0.000000 -0.000000 0.000000 -3.859008 1.846515 -7.324638 -1.411506 7.032691 13.320677 9.608469 -0.915811 -1.321516 0.000000 -0.000000 0.000000 -1.187365 -0.653942 8.097810 -0.795287 1.732883 4.819019 -1.905639 1.749212 5.972018 6.161448 2.441277 15.284606 0.824787 7.095846 17.287316 -14.625066 4.744992 1.117926 -53.278412 -3.697088 21.628992 -157.339403 -80.711933 -178.558441 11.437357 -9.841998 -35.919771 9.912541 6.202144 -4.401132 27.912803 35.245208 -2.976573 -45.214874 43.855095 -49.773631 1.702145 -1.181472 -26.611445 
0.001668 0.316032 1.007209 61.396962 0.446507 84.747410 -0.130387 8.426771 7.981040 -3.992171 9.407202 0.324439 1.687556 15.327080 -5.563719 0.000000 -0.000000 0.000000 -4.106692 1.825213 -7.525825 -1.484376 7.036784 13.939638 9.442735 -0.859636 -1.530397 0.000000 -0.000000 0.000000 -1.470310 -0.315679 8.518449 -0.639537 1.815589 5.679806 -1.936840 1.839548 5.830953 5.742866 2.667650 16.448838 0.808137 6.500675 17.264193 -14.618494 4.801038 1.448940 -53.175833 -3.992283 21.204117 -156.338255 -80.544446 -179.669196 11.365358 -9.890861 -35.778250 10.922070 5.706103 -3.196604 31.567219 33.250157 -0.334921 -45.955070 45.346603 -49.585371 2.025752 -0.995478 -27.455225 
0.000192 0.317088 1.006359 61.667153 0.193237 84.711342 -0.407607 8.322811 7.808219 -4.069873 9.370383 0.471247 1.858980 15.195307 -5.553125 0.000000 -0.000000 0.000000 -4.321048 1.900845 -7.882095 -1.642858 6.841432 14.607954 9.404121 -0.844330 -1.771496 0.000000 -0.000000 0.000000 -1.709016 -0.001623 9.054626 -0.445891 1.788632 6.245589 -1.978009 1.874427 5.800484 5.361252 2.902395 17.005610 0.717136 5.753883 17.263482 -14.553598 4.924035 1.560722 -53.229840 -4.282241 20.861346 -155.597233 -80.522955 179.354923 11.245121 -9.815851 -35.594542 11.947144 4.988628 -2.326061 35.422997 31.429715 2.340472 -47.508835 47.135706 -50.299567 2.259776 -1.188465 -28.125392 
-0.001042 0.317847 1.005636 61.835060 -0.124899 84.776146 -0.722773 8.359877 7.733219 -4.229759 9.267785 0.313266 2.044696 15.066008 -5.469448 0.000000 -0.000000 0.000000 -4.576547 1.989534 -8.310406 -1.797961 6.805878 15.206392 9.376516 -0.899128 -1.990675 0.000000 -0.000000 0.000000 -2.069154 0.196145 9.462701 -0.231958 1.810576 6.650528 -1.952992 1.869633 5.788319 5.001249 3.259276 17.008900 0.615224 5.075022 17.115886 -14.623721 5.433341 1.774490 -53.217648 -4.655415 20.288738 -152.687700 -80.428899 176.391660 11.227577 -9.737986 -35.654779 13.064068 4.293105 -1.517689 38.788439 29.564760 4.815932 -49.179467 49.264601 -50.550494 2.456598 -1.207707 -29.492115 
-0.002891 0.319302 1.005170 62.434969 -0.328563 85.012009 -1.017073 8.029801 7.123240 -4.263730 9.255999 0.617875 2.334305 14.807290 -5.431199 0.000000 -0.000000 0.000000 -4.865706 1.978336 -8.883565 -1.837780 6.490775 15.766441 9.412673 -1.004721 -2.146414 0.000000 -0.000000 0.000000 -2.249850 0.256259 10.130535 -0.039011 1.477292 6.441002 -1.890920 1.794509 5.871864 4.689201 3.636851 16.089459 0.460179 4.545876 16.869496 -14.666283 5.784097 1.872092 -53.474257 -4.631042 19.895095 -151.729703 -80.417811 175.412765 11.040400 -9.789952 -35.556151 14.001890 3.664552 -1.106010 42.017791 27.735558 7.305662 -51.640076 51.403421 -51.497648 3.091651 -0.978181 -29.573296 
-0.003798 0.320159 1.004787 62.609667 -0.474934 85.377202 -1.215934 7.916425 6.761263 -4.379318 9.430544 0.435252 2.393779 14.568201 -5.326303 0.000000 -0.000000 0.000000 -5.067290 2.094194 -9.477641 -1.898989 6.189359 16.152816 9.364869 -0.907561 -2.260127 0.000000 -0.000000 0.000000 -2.453599 0.358472 10.353655 0.224215 1.346132 6.432033 -1.746517 1.738611 5.767994 4.326878 4.012581 14.975930 0.334257 4.042203 16.203798 -14.776810 6.000219 2.188543 -53.734150 -4.504265 19.452879 -150.946438 -80.451181 174.598944 10.346965 -10.024067 -35.373802 15.023837 3.320724 -0.446757 44.167506 26.047501 8.850004 -54.672626 53.231554 -52.896347 4.162472 -0.038105 -29.611471 
-0.004404 0.321240 1.004635 62.919389 -0.546542 85.759350 -1.389335 7.769488 6.392971 -4.411378 9.368415 0.252521 2.497558 14.384237 -5.186172 0.000000 -0.000000 0.000000 -5.254630 2.040766 -9.886039 -1.914689 5.974640 16.264471 9.390780 -0.891859 -2.323052 0.000000 -0.000000 0.000000 -2.399436 0.350162 10.462353 0.414532 1.135350 6.148585 -1.639481 1.589479 5.783347 4.046145 4.239021 13.896018 0.073795 3.771502 15.700056 -14.812209 6.258842 2.271083 -54.058077 -4.345068 19.215671 -149.298834 -80.390410 173.117908 10.377641 -9.751151 -35.534571 15.817760 2.720538 -0.125957 45.692836 24.931824 10.008916 -56.811792 55.175829 -53.916407 4.069029 0.091154 -29.656030 
-0.004493 0.322270 1.004675 63.111591 -0.583406 85.934697 -1.544122 7.580075 6.340234 -4.394612 9.441602 -0.046842 2.479541 14.224186 -5.090669 0.000000 -0.000000 0.000000 -5.395314 2.006891 -9.985525 -1.947406 5.817117 16.153382 9.479134 -0.836059 -2.284866 0.000000 -0.000000 0.000000 -2.271488 0.310973 10.531790 0.580954 0.882256 5.975246 -1.571618 1.465826 5.812959 3.898181 4.573284 12.971826 -0.094158 3.611482 15.241102 -14.766753 6.412515 2.328953 -54.408397 -4.287275 19.152099 -148.316156 -80.246488 172.257924 10.435378 -9.776609 -35.634579 16.198666 2.342129 -0.088858 46.904770 24.317234 11.016376 -58.355043 56.284312 -54.204261 3.870084 0.039688 -28.940480 
-0.003976 0.322724 1.004779 63.092531 -0.596789 85.978141 -1.609305 7.574620 6.513380 -4.446313 9.450019 -0.396147 2.516705 14.152886 -4.943767 0.000000 -0.000000 0.000000 -5.437741 1.998863 -9.954824 -1.965091 5.832697 16.083766 9.386772 -0.817689 -2.294651 0.000000 -0.000000 0.000000 -2.129418 0.220798 10.420543 0.697681 0.752721 5.906819 -1.538043 1.477906 5.835028 3.794634 4.625414 12.426343 -0.195741 3.642154 15.003995 -14.616685 6.375114 2.288957 -54.592108 -4.195357 19.199996 -147.275779 -79.974643 171.188313 10.804299 -9.548287 -35.766607 16.265363 2.276322 0.030066 47.731716 23.886156 11.628250 -59.978305 56.884409 -55.061873 3.455107 -0.040195 -27.896441 
-0.003453 0.322948 1.004854 63.002922 -0.648885 85.884589 -1.670246 7.729638 6.719382 -4.429059 9.429328 -0.555398 2.464453 14.150915 -4.880140 0.000000 -0.000000 0.000000 -5.499933 2.045229 -9.826824 -2.007977 5.842645 16.098268 9.443421 -0.755803 -2.403278 0.000000 -0.000000 0.000000 -2.076308 0.143744 10.336836 0.799128 0.659509 5.968983 -1.465091 1.431371 5.780633 3.665128 4.592343 12.199468 -0.256918 3.602128 15.152562 -14.580152 5.991655 2.469442 -54.583973 -4.111644 19.215174 -148.604744 -79.729001 172.527932 11.038430 -9.625226 -35.920683 16.236864 2.504170 0.146569 47.835855 23.633686 11.829138 -61.224960 57.292093 -55.651546 3.100244 0.078681 -27.290042 
